<?xml version="1.0" encoding="UTF-8"?>
<svg id="Layer_1" data-name="Layer 1" xmlns="http://www.w3.org/2000/svg" viewBox="0 0 35.83 29.17">
  <defs>
    <style>
      .cls-1 {
        fill: none;
        stroke: #2963e5;
        stroke-linecap: round;
        stroke-linejoin: round;
        stroke-width: 2.5px;
      }
    </style>
  </defs>
  <path class="cls-1" d="M7.92,26.25c-4.14,0-6.67-3.36-6.67-7.5s3.36-7.5,7.5-7.5h.83v-1.67c0-4.6,3.73-8.33,8.33-8.33s8.33,3.73,8.33,8.33v1.67h.83c4.14,0,7.5,3.36,7.5,7.5s-2.52,7.5-6.67,7.5"/>
  <path class="cls-1" d="M12.92,27.08v-6.67c0-.46,.37-.83,.83-.83h8.33c.46,0,.83,.37,.83,.83v6.67c0,.46-.37,.83-.83,.83H13.75c-.46,0-.83-.37-.83-.83Z"/>
  <path class="cls-1" d="M14.58,19.58v-1.67c0-1.84,1.49-3.33,3.33-3.33h0c1.84,0,3.33,1.49,3.33,3.33v1.67"/>
</svg>