<?xml version="1.0" encoding="UTF-8"?>
<svg id="Layer_1" data-name="Layer 1" xmlns="http://www.w3.org/2000/svg" viewBox="0 0 32.5 35.83">
  <defs>
    <style>
      .cls-1 {
        stroke-linejoin: round;
      }

      .cls-1, .cls-2 {
        stroke-linecap: round;
      }

      .cls-1, .cls-2, .cls-3 {
        fill: none;
        stroke: #2963e5;
        stroke-width: 2.5px;
      }
    </style>
  </defs>
  <path class="cls-2" d="M30.17,12.32c1.26,3.14,1.42,6.61,.46,9.85-.96,3.24-2.99,6.07-5.75,8.01-2.77,1.95-6.11,2.9-9.49,2.71-1.42-.08-2.82-.36-4.14-.83M19.58,3.29c-3.08-.7-6.32-.41-9.24,.83-3.11,1.33-5.68,3.67-7.29,6.65-.27,.5-.52,1.02-.73,1.55-1.04,2.58-1.34,5.42-.86,8.18,.18,1.03,.47,2.04,.86,3"/>
  <circle class="cls-3" cx="22.92" cy="4.58" r="3.33"/>
  <circle class="cls-3" cx="7.92" cy="31.25" r="3.33"/>
  <path class="cls-1" d="M11.92,14.6l3.73-1.45c.39-.15,.82-.15,1.21,0l3.73,1.45c.4,.16,.67,.54,.67,.98v1.59c0,2.23-1.03,4.33-2.79,5.69-1.3,1.01-3.13,1.01-4.43,0-1.76-1.37-2.79-3.47-2.79-5.69v-1.59c0-.43,.26-.82,.67-.98Z"/>
</svg>